# xmcd
#
# Track frame offsets: 
#        150
#        15639
#        29555
#        43488
#        56756
#        71594
#        87752
#        101847
#        117408
#        130692
#        146358
#        160471
#        174881
#        188901
#        203761
#        219970
#        235875
#        250445
#        263079
#        278850
#        291212
#
# Disc length: 4061 seconds
#
# Revision: 2
# Processed by: cddbd v1.5.2PL0 Copyright (c) Steve Scherf et al.
# Submitted via: ExactAudioCopy v0.99pb5
#
DISCID=3c0fdb15
DTITLE=Bessie Smith - The story of the blues, Chapter 1 | CD1
DYEAR=2004
DGENRE=Blues
TTITLE0=Down hearted blues
TTITLE1=Gulf Coast blues
TTITLE2=Oh Daddy blues
TTITLE3=Baby won't you please come home
TTITLE4=Agravatin' Papa
TTITLE5=Beale street Mama
TTITLE6=Keeps on a-rainin´(Papa, he Can't make no time)
TTITLE7=Taint nobody's bizness if I do
TTITLE8=Mama's got the blues
TTITLE9=Outside of that
TTITLE10=Lady luck blues
TTITLE11=Yodling blues
TTITLE12=Bleeding hearted blues
TTITLE13=Midnight blues
TTITLE14=If you don't, I know who will
TTITLE15=Nobody in town can bake a sweet Jelly Roll like mine
TTITLE16=Jail house blues
TTITLE17=Sam Jones blues
TTITLE18=Cemetery blues
TTITLE19=Graveyard dream blues
TTITLE20=Far away blues
EXTD=
EXTT0=
EXTT1=
EXTT2=
EXTT3=
EXTT4=
EXTT5=
EXTT6=
EXTT7=
EXTT8=
EXTT9=
EXTT10=
EXTT11=
EXTT12=
EXTT13=
EXTT14=
EXTT15=
EXTT16=
EXTT17=
EXTT18=
EXTT19=
EXTT20=
PLAYORDER=
